<svg xmlns="http://www.w3.org/2000/svg" version="1.1" xmlns:xlink="http://www.w3.org/1999/xlink" width="1500" height="1500" viewBox="0 0 1500 1500"><rect width="1500" height="1500" x="0" y="0" id="background" stroke="transparent" fill="#ffffff"></rect><svg xml:space="preserve" width="1000" height="1000" data-version="2" data-id="lg_755ju0LMNQekveqUA9" viewBox="0 0 571 129" x="250" y="250"><rect width="100%" height="100%" fill="transparent"></rect><circle r="59.32" fill="#373737" transform="translate(68.94 64.5)scale(1.0654)"></circle><path fill="#373737" d="m152.205 97.96-.21-4 6.01-1.48q.1-.42.16-2.11.05-1.69.1-4.9.05-3.22.05-7.97l.11-22.25q0-4.22-.05-7.12-.06-2.9-.11-4.59t-.16-2l-6.54-1.48.32-4.01h33.33q1.58 0 3.22-.05 1.63-.05 3.48-.16l3.85-.21 2.21 13.92-4.85.74-3.59-8.86q-.74-.21-1.74-.26-1-.05-2.16-.05h-11.71q-1.58 0-3.53.05-1.95.05-3.11.26 0 .42-.05 1.58-.06 1.16-.06 2.96v8.65l.11 22.99q0 4.96.05 8.12.05 3.16.16 4.75.11 1.58.21 2l8.54 1.27-.21 4.21Zm33.54-20.77-1.38-7.6q-.63-.21-1.95-.31-1.31-.11-3.11-.11h-8.86q-1.05 0-2.37.05-1.32.06-3.11.16v-5.8q1.26.11 2.69.21 1.42.11 2.79.11h8.86q2.11 0 3.32-.16 1.22-.16 1.74-.26l1.38-7.18h4.53v20.89Z"></path><rect width="46.41" height="62.33" x="-23.2" y="-31.16" fill="none" rx="0" ry="0" transform="translate(175.27 67.3)"></rect><path fill="#373737" d="m246.065 90.58 6.65 1.69v3.48l-13.71 3.37-1.58-1.37.1-6.64-.32-.11q-3.05 4.33-6.27 6.07-3.22 1.74-6.91 1.74-7.07 0-11.81-4.38-4.75-4.38-4.75-13.13v-9.07q0-2.95-.16-5.75-.15-2.79-.37-5.64l-7.17-1.48v-3.48l14.35-3.9 1.9 1.69q-.22 3.27-.32 6.96-.11 3.69-.11 7.7l-.1 11.6q0 6.54 3.06 9.33 3.06 2.8 7.8 2.8 2.85 0 5.8-1.48 2.96-1.48 5.17-5.06V73.28q0-2.32-.05-4.58-.06-2.27-.16-4.33-.11-2.05-.32-3.53l-7.7-1.48v-3.48l14.87-3.9 1.59 1.48q-.11 2.95-.16 5.27-.05 2.32-.05 4.59v12.6q0 5.8.26 9.33.26 3.54.47 5.33"></path><rect width="52.95" height="47.14" x="-26.48" y="-23.57" fill="none" rx="0" ry="0" transform="translate(226.74 76.05)"></rect><path fill="#373737" d="m258.835 97.96-.32-3.79 6.54-1.59q.1-.52.21-1.89.1-1.37.16-3.69.05-2.33.05-5.7l.11-8.23q0-3.48-.27-6.85-.26-3.38-.58-5.38l-6.75-1.48v-3.48l14.13-3.9 1.48 1.48-.42 8.86.32.1q3.16-6.12 6.43-8.28 3.27-2.16 6.12-2.16 2.42 0 4.06 1.21 1.63 1.22 1.63 3.64 0 2.53-1.74 3.85-1.74 1.32-4.38 1.32-1.89 0-3.63-.84-1.74-.85-3.33-2.33l1.9.64q-2 1.26-3.79 3.53-1.8 2.27-3.27 5.64l.1 9.81q.11 2.64.21 5.49.11 2.84.21 5.11.11 2.27.21 3.53l9.18 1.38-.21 4Z"></path><rect width="33.75" height="45.98" x="-16.88" y="-22.99" fill="none" rx="0" ry="0" transform="translate(275.36 75.47)"></rect><path fill="#373737" d="m297.015 97.96-.22-3.79 6.54-1.59q.11-.73.16-2 .05-1.26.16-3.48.11-2.21.11-5.8l.1-8.12q0-3.48-.26-6.91-.27-3.43-.58-5.43l-6.75-1.48v-3.48l14.13-3.9 1.79 1.69-.52 5.59.31.1q3.69-4.01 7.28-5.8 3.59-1.79 7.8-1.79 3.91 0 7.33 1.95 3.43 1.95 5.59 5.96 2.17 4.01 2.17 10.23v11.71q0 3.79.15 6.85.16 3.06.48 4.11l6.54 1.59-.32 3.79h-21.2l-.21-3.79 6.12-1.59q.1-.84.21-2.1.1-1.27.16-3.22.05-1.95.05-4.91V70.96q0-4.74-1.63-7.54-1.64-2.79-4.07-4-2.42-1.22-4.95-1.22-3.48 0-6.49 1.74-3 1.74-5.11 4.8v15.82q0 4.85.15 7.86.16 3 .37 4.16l6.54 1.59-.31 3.79Z"></path><rect width="53.05" height="46.19" x="-26.52" y="-23.09" fill="none" rx="0" ry="0" transform="translate(323.3 75.36)"></rect><path fill="#373737" d="m354.595 97.96-.21-3.9 7.07-1.48q.1-.42.15-1.47.06-1.06.16-3.38.11-2.32.11-6.43v-6.96q0-4.33-.21-7.91-.21-3.59-.53-5.59l-7.07-1.48v-3.48l14.98-3.9 1.58 1.48q-.31 3.27-.47 6.43-.16 3.16-.16 7.38v13.29q0 4.85.16 8.02.16 3.16.37 4l7.06 1.48-.21 3.9Zm11.39-57.9q-2.63 0-4.59-1.79-1.95-1.79-1.95-4.43 0-2.64 1.95-4.43 1.96-1.79 4.59-1.79 2.74 0 4.54 1.79 1.79 1.79 1.79 4.43 0 2.64-1.79 4.43-1.8 1.79-4.54 1.79"></path><rect width="23.52" height="70.34" x="-11.76" y="-35.17" fill="none" rx="0" ry="0" transform="translate(366.32 63.29)"></rect><path fill="#373737" d="m383.285 97.96-.21-3.79 6.54-1.59q.1-.73.15-2 .06-1.26.16-3.48.11-2.21.11-5.8l.1-8.12q0-3.48-.26-6.91t-.58-5.43l-6.75-1.48v-3.48l14.13-3.9 1.8 1.69-.53 5.59.32.1q3.69-4.01 7.27-5.8 3.59-1.79 7.81-1.79 3.9 0 7.33 1.95t5.59 5.96q2.16 4.01 2.16 10.23v11.71q0 3.79.16 6.85.16 3.06.47 4.11l6.54 1.59-.32 3.79h-21.19l-.22-3.79 6.12-1.59q.11-.84.21-2.1.11-1.27.16-3.22.05-1.95.05-4.91V70.96q0-4.74-1.63-7.54-1.64-2.79-4.06-4-2.43-1.22-4.96-1.22-3.48 0-6.49 1.74-3 1.74-5.11 4.8v15.82q0 4.85.16 7.86.16 3 .37 4.16l6.54 1.59-.32 3.79Z"></path><rect width="53.05" height="46.19" x="-26.52" y="-23.09" fill="none" rx="0" ry="0" transform="translate(409.57 75.36)"></rect><path fill="#373737" d="M464.175 98.81q-6.11 0-11.02-2.74-4.9-2.75-7.8-7.86-2.9-5.12-2.9-12.08 0-7.49 3.06-12.97 3.05-5.49 8.01-8.49 4.96-3.01 10.65-2.9 8.23.1 12.87 5.48 4.64 5.38 4.64 15.19v1.9h-32.38V69.7h25.42l-1.16 1.37v-2.22q0-6.11-2.74-9.38-2.74-3.27-7.49-3.27-2.95 0-5.7 1.74-2.74 1.74-4.43 5.27-1.68 3.54-1.68 8.91v1.27q0 8.65 4.27 13.5t11.02 4.85q3.69 0 6.64-1.48 2.96-1.47 5.7-4.74l2.64 2.42q-2.96 5.49-7.49 8.18-4.54 2.69-10.13 2.69"></path><rect width="39.34" height="47.07" x="-19.67" y="-23.54" fill="none" rx="0" ry="0" transform="translate(462.63 75.77)"></rect><path fill="#373737" d="M506.155 98.81q-3.9 0-7.8-.9-3.91-.9-6.65-2.37l-.53-11.29h5.17l2.11 7.6q3.69 2.53 8.44 2.53 3.58 0 5.8-1.74 2.21-1.74 2.21-4.7 0-2.74-2-4.79-2-2.06-7.8-4.49-7.49-3.27-10.55-6.27-3.06-3.01-3.06-7.75 0-3.8 2.27-6.7 2.26-2.9 6.27-4.54 4.01-1.63 9.28-1.63 2.96 0 6.02.53 3.05.52 5.06 1.37l1.16 10.97h-4.96l-2.53-7.18q-1.05-.63-2.53-1-1.48-.37-3.17-.37-3.69 0-5.9 1.74-2.22 1.74-2.22 4.49 0 3.16 2.43 5.11 2.43 1.95 8.54 4.8 6.96 3.16 9.71 6.22 2.74 3.06 2.74 7.38 0 5.7-4.96 9.34-4.96 3.64-12.55 3.64"></path><rect width="32.49" height="47.04" x="-16.25" y="-23.52" fill="none" rx="0" ry="0" transform="translate(507.92 75.79)"></rect><path fill="#373737" d="M564.265 91.42q-2 3.49-5.48 5.44-3.48 1.95-7.28 1.95-6.43 0-10.55-3.9-4.11-3.91-4.11-11.71l.32-25.21h-7.39v-2.21l13.61-12.34h2l-.21 12.13-.1 25.94q0 5.49 2.37 8.12 2.37 2.64 6.7 2.64 2.42 0 4.48-.95 2.06-.95 3.74-2.53Zm-22.88-33.43v-5.27h19.72v5.27Z"></path><rect width="34.49" height="55.37" x="-17.25" y="-27.68" fill="none" rx="0" ry="0" transform="translate(547.52 71.63)"></rect><path fill="#ffffff" d="m55.105 82.65-.13-2.64 3.95-.97q.07-.27.1-1.38.04-1.11.07-3.23.04-2.11.04-5.23l.07-14.63q0-2.78-.04-4.68-.03-1.91-.07-3.02-.03-1.11-.1-1.32l-4.3-.97.21-2.63h21.91q1.04 0 2.11-.04 1.08-.03 2.29-.1t2.53-.14l1.46 9.15-3.19.49-2.36-5.83q-.49-.13-1.14-.17-.66-.03-1.43-.03h-7.69q-1.04 0-2.32.03-1.29.04-2.05.17 0 .28-.04 1.04-.03.77-.03 1.95v5.68l.07 15.12q0 3.26.03 5.34.04 2.08.11 3.12t.14 1.31l5.61.84-.14 2.77Zm22.05-13.66-.9-4.99q-.41-.14-1.28-.21-.87-.07-2.05-.07h-5.82q-.69 0-1.56.03-.87.04-2.05.11v-3.81q.84.06 1.77.13.94.07 1.84.07h5.82q1.39 0 2.19-.1t1.14-.17l.9-4.72h2.98v13.73Z" paint-order="stroke"></path><rect width="30.51" height="40.98" x="-15.26" y="-20.49" fill="none" rx="0" ry="0" transform="translate(70.45 62.66)"></rect></svg></svg>